<svg xmlns="http://www.w3.org/2000/svg" viewBox="0 0 160 160" width="160" height="160" aria-hidden="true">
  <defs>
    <linearGradient id="svGrad" x1="0" x2="1" y1="0" y2="1">
      <stop offset="0" stop-color="#1a3a5f"/>
      <stop offset="1" stop-color="#00a6a6"/>
    </linearGradient>
  </defs>

  <!-- Outer shield -->
  <path d="M80 10c-1 0-34 14-42 30-8.2 16.8-8 38 0 66 7.7 26 42 35 42 35s34.3-9 42-35c8-28 8.2-49.2 0-66C114 24 81 10 80 10z" fill="url(#svGrad)" stroke="#0f2538" stroke-width="2"/>

  <!-- Inner pin shaped as inverted teardrop -->
  <path d="M80 36c-10 0-18 8-18 18 0 13 22 36 18 52-4-16 18-39 18-52 0-10-8-18-18-18z" fill="#fff" opacity="0.98"/>
  <circle cx="80" cy="58" r="6" fill="#1a3a5f"/>

  <!-- Bars centered bottom-left for data viz -->
  <g transform="translate(46 84)">
    <rect x="0" y="14" width="8" height="18" rx="1" fill="#ffc107"/>
    <rect x="12" y="8" width="8" height="24" rx="1" fill="#00a6a6"/>
    <rect x="24" y="0" width="8" height="32" rx="1" fill="#1a3a5f"/>
  </g>
</svg>