<?xml version="1.0" encoding="UTF-8"?>
<svg xmlns="http://www.w3.org/2000/svg" width="800" height="600" viewBox="0 0 800 600">
  <defs>
    <linearGradient id="networkGradient" x1="0" y1="0" x2="1" y2="1">
      <stop offset="0%" stop-color="#1a3a5f" />
      <stop offset="50%" stop-color="#174b7a" />
      <stop offset="100%" stop-color="#00a6a6" />
    </linearGradient>
    <radialGradient id="nodeGlow" cx="50%" cy="50%" r="50%">
      <stop offset="0%" stop-color="#ffffff" stop-opacity="0.95" />
      <stop offset="100%" stop-color="#00a6a6" stop-opacity="0.2" />
    </radialGradient>
    <radialGradient id="accentGlow" cx="50%" cy="50%" r="50%">
      <stop offset="0%" stop-color="#ffc107" stop-opacity="0.9" />
      <stop offset="100%" stop-color="#ffc107" stop-opacity="0" />
    </radialGradient>
    <radialGradient id="backgroundGradient" cx="50%" cy="50%" r="80%">
      <stop offset="0%" stop-color="#0e1b2a" />
      <stop offset="100%" stop-color="#050d18" />
    </radialGradient>
  </defs>

  <rect width="800" height="600" fill="url(#backgroundGradient)" />

  <g transform="translate(100,60)">
    <path d="M160 420 C120 360 120 300 140 260 C200 130 340 80 420 120 C480 150 580 210 580 300 C580 360 540 420 480 440 C420 460 340 450 300 420" stroke="url(#networkGradient)" stroke-width="4" fill="none" stroke-linecap="round" stroke-linejoin="round" opacity="0.6" />
    <path d="M120 220 C210 40 480 60 540 210" stroke="url(#networkGradient)" stroke-width="2.6" fill="none" stroke-dasharray="12 14" opacity="0.38" />

    <g stroke="url(#networkGradient)" stroke-width="3" fill="none" stroke-linecap="round" opacity="0.75">
      <path d="M160 420 Q240 340 320 360 Q400 380 480 300" />
      <path d="M160 200 Q240 160 320 220 Q400 280 520 240" />
      <path d="M220 140 Q300 90 380 160 Q460 230 540 190" />
      <path d="M220 360 Q320 300 420 320 Q520 340 560 260" />
    </g>

    <g fill="#ffffff" opacity="0.14">
      <path d="M140 140 Q220 80 320 80 Q420 80 520 140 L580 180" />
      <path d="M140 460 Q220 520 320 520 Q420 520 520 460 L580 420" />
    </g>

    <g>
      <circle cx="140" cy="260" r="16" fill="url(#nodeGlow)" />
      <circle cx="160" cy="420" r="12" fill="url(#nodeGlow)" />
      <circle cx="300" cy="420" r="18" fill="url(#nodeGlow)" />
      <circle cx="420" cy="320" r="14" fill="url(#nodeGlow)" />
      <circle cx="540" cy="190" r="16" fill="url(#nodeGlow)" />
      <circle cx="520" cy="340" r="14" fill="url(#nodeGlow)" />
      <circle cx="380" cy="160" r="10" fill="url(#nodeGlow)" />
      <circle cx="220" cy="360" r="12" fill="url(#nodeGlow)" />
      <circle cx="240" cy="200" r="10" fill="url(#nodeGlow)" />

      <circle cx="300" cy="260" r="22" fill="url(#accentGlow)" />
      <circle cx="460" cy="280" r="20" fill="url(#accentGlow)" />
    </g>

    <g fill="#00a6a6" opacity="0.4">
      <circle cx="320" cy="220" r="6" />
      <circle cx="360" cy="260" r="4" />
      <circle cx="420" cy="360" r="5" />
      <circle cx="260" cy="320" r="5" />
      <circle cx="500" cy="240" r="4" />
    </g>

    <g fill="#ffc107" opacity="0.7">
      <circle cx="360" cy="180" r="6" />
      <circle cx="460" cy="320" r="6" />
      <circle cx="220" cy="300" r="5" />
    </g>

    <path d="M180 420 Q260 320 360 280 Q460 240 540 300" stroke="#11263d" stroke-opacity="0.3" stroke-width="18" fill="none" filter="url(#blur)" />
  </g>

  <g font-family="'Orbitron', 'Segoe UI', sans-serif" fill="#e2e8f0" text-anchor="middle">
    <text x="400" y="480" font-size="68" font-weight="600" letter-spacing="8">SAFEVISION</text>
    <text x="400" y="525" font-size="26" fill="#94a3b8" letter-spacing="6">Spatial Analysis &amp; Visualization</text>
  </g>
</svg>